<svg version="1.1" id="Layer_1" xmlns="http://www.w3.org/2000/svg" xmlns:xlink="http://www.w3.org/1999/xlink" x="0px" y="0px"
	 width="100%" fill = "black" viewBox="0 0 309 310" enable-background="new 0 0 309 310" xml:space="preserve">
	
<path fill="#FFFFFF" opacity="1.000000" stroke="none" 
	d="
M175.000000,311.000000 
	C118.000031,311.000000 61.499958,310.960541 5.000316,311.097107 
	C1.575492,311.105377 0.900445,310.424225 0.904456,306.999969 
	C1.022355,206.333496 1.022340,105.666824 0.904500,5.000340 
	C0.900493,1.576759 1.575319,0.900403 4.999880,0.904431 
	C105.333031,1.022431 205.666382,1.022403 305.999512,0.904514 
	C309.422791,0.900492 310.099609,1.574887 310.095581,4.999732 
	C309.977661,105.666214 309.977631,206.332886 310.095428,306.999359 
	C310.099426,310.422302 309.427002,311.109894 306.000183,311.098145 
	C262.500519,310.949005 219.000168,311.000000 175.000000,311.000000 
z"/>
<path fill="#000000" opacity="1.000000" stroke="none" 
	d="
M178.220200,263.999847 
	C178.220200,243.835129 178.332687,224.169220 178.122284,204.506790 
	C178.081757,200.716904 179.069275,199.741577 182.805725,199.862900 
	C191.795349,200.154846 200.803497,199.833420 209.798462,200.026489 
	C212.831100,200.091599 213.669159,199.041214 214.065521,196.138153 
	C215.727661,183.964050 217.548157,171.805756 219.658783,159.702393 
	C220.256027,156.277512 219.237579,155.900574 216.268173,155.939713 
	C204.937943,156.089020 193.602219,155.871384 182.273865,156.080109 
	C178.971573,156.140945 178.004272,155.214706 178.153366,151.933548 
	C178.553787,143.120926 177.758499,134.279160 178.630997,125.469124 
	C179.952942,112.121147 187.917526,104.601181 201.560638,104.057251 
	C207.217834,103.831703 212.892151,103.938080 218.556335,104.033623 
	C220.836105,104.072083 222.142548,103.915482 222.081345,100.929268 
	C221.869659,90.601303 222.015091,80.266296 221.978775,69.934128 
	C221.974579,68.739426 222.515381,67.251022 220.370193,66.967003 
	C203.555634,64.740746 186.715698,61.828659 169.894363,66.564217 
	C148.724426,72.523994 135.131577,89.576813 132.911789,111.730766 
	C131.577606,125.046295 132.280518,138.355652 132.177872,151.665665 
	C132.151825,155.045013 131.515060,156.187790 127.893059,156.095078 
	C117.400986,155.826508 106.896332,156.089172 96.399513,155.939590 
	C93.655853,155.900497 92.723877,156.553909 92.762794,159.464569 
	C92.927643,171.794464 92.921257,184.128937 92.767273,196.459106 
	C92.731133,199.352829 93.660614,200.056290 96.426704,200.017715 
	C107.090225,199.869003 117.757950,200.031937 128.422012,199.904266 
	C131.037476,199.872971 132.165115,200.273941 132.154495,203.326813 
	C132.038483,236.656387 132.082565,269.986542 132.069702,303.316528 
	C132.069504,303.794647 131.897873,304.272705 131.807465,304.744568 
	C116.383400,302.509766 101.636009,298.010498 87.948433,290.889862 
	C50.244423,271.275269 24.491467,241.206436 11.331074,200.675812 
	C5.284714,182.054581 3.520515,162.715637 5.182645,143.389374 
	C7.844374,112.440384 18.971022,84.635277 38.924423,60.482906 
	C52.854263,43.621685 69.483299,30.186453 89.029945,20.607117 
	C103.518288,13.506728 118.850243,8.868773 135.029312,6.861522 
	C146.811386,5.399781 158.652481,5.288475 170.265549,6.269062 
	C192.297104,8.129366 212.987335,14.996877 232.144806,26.471621 
	C243.427505,33.229607 253.737854,41.072739 262.868225,50.432350 
	C282.595947,70.655411 295.742920,94.502838 302.051605,122.137451 
	C305.175415,135.820969 306.814575,149.659576 305.876434,163.594391 
	C304.634979,182.034119 300.722351,199.921494 293.085327,216.963989 
	C285.294098,234.350571 274.873657,249.819626 261.318787,263.137787 
	C240.773056,283.324738 216.368927,296.568329 188.289169,302.984375 
	C178.236923,305.281281 178.220184,305.208099 178.220184,294.996857 
	C178.220184,284.831207 178.220200,274.665527 178.220200,263.999847 
z"/>
</svg>