<svg version="1.1" id="Layer_1" xmlns="http://www.w3.org/2000/svg" xmlns:xlink="http://www.w3.org/1999/xlink" x="0px" y="0px"
	 width="100%" viewBox="0 0 217 218" enable-background="new 0 0 217 218" xml:space="preserve">
<path fill="#FEFEFE" opacity="1.000000" stroke="none" 
	d="
M126.000000,219.000000 
	C85.166672,219.000000 44.833214,218.958939 4.500267,219.083817 
	C1.516876,219.093063 0.913218,218.482315 0.917716,215.499893 
	C1.023800,145.166718 1.023798,74.833313 0.917722,4.500144 
	C0.913224,1.517792 1.517632,0.913176 4.500104,0.917702 
	C74.499939,1.023916 144.500000,1.023911 214.499847,0.917713 
	C217.482178,0.913189 218.086807,1.517592 218.082306,4.500091 
	C217.976212,74.833260 217.976196,145.166656 218.082275,215.499832 
	C218.086761,218.482101 217.484253,219.099380 214.499634,219.085052 
	C185.166977,218.944168 155.833344,219.000000 126.000000,219.000000 
z"/>
<path fill="#000000" opacity="1.000000" stroke="none" 
	d="
M181.745468,185.751709 
	C167.374939,200.141220 150.057617,208.318039 130.884171,212.904144 
	C128.141281,213.560211 125.783997,213.572021 125.854591,208.923035 
	C126.185875,187.103561 126.061714,165.275894 125.932152,143.452148 
	C125.914398,140.461380 126.531654,139.390610 129.721878,139.551147 
	C135.371933,139.835464 141.049240,139.528809 146.709854,139.674576 
	C149.450302,139.745148 150.787308,139.227203 151.175858,136.009827 
	C152.070236,128.604065 153.538696,121.265648 154.847672,113.912971 
	C155.328827,111.210281 155.218201,109.720139 151.595215,109.893761 
	C144.281647,110.244225 136.936935,109.887573 129.610458,110.056160 
	C126.931473,110.117798 125.783638,109.593063 125.933258,106.591721 
	C126.223251,100.774269 125.855461,94.920418 126.226578,89.111450 
	C126.798737,80.155731 132.097427,75.303879 141.061859,75.004280 
	C142.060623,74.970901 143.060577,74.970085 144.060028,74.961533 
	C155.169998,74.866470 155.169998,74.866867 155.169998,63.986240 
	C155.169998,61.987049 155.169998,59.987854 155.169998,57.988663 
	C155.170013,48.032696 155.178329,47.930946 145.253647,47.119854 
	C136.146820,46.375599 127.014709,45.640732 118.055725,48.432098 
	C103.794113,52.875622 94.322906,64.912727 92.932083,79.906044 
	C92.160324,88.225777 92.144997,96.554863 92.514648,104.847443 
	C92.724068,109.545479 91.091042,110.313850 86.972824,110.086296 
	C80.827415,109.746727 74.647270,110.090332 68.486214,109.951714 
	C66.133301,109.898766 65.275734,110.559952 65.320068,113.022003 
	C65.458008,120.683075 65.479645,128.350616 65.312965,136.010559 
	C65.250305,138.890045 66.245369,139.753983 69.050980,139.684097 
	C75.710808,139.518143 82.380440,139.744049 89.040146,139.575760 
	C91.666519,139.509384 92.434196,140.313721 92.422905,142.948395 
	C92.327271,165.272293 92.287857,187.597382 92.451233,209.920486 
	C92.477203,213.468201 90.506805,213.385086 88.400017,212.935852 
	C73.768829,209.816010 60.146297,204.075195 48.028851,195.385117 
	C33.399097,184.893341 22.121496,171.295486 14.516873,154.933609 
	C8.610655,142.225983 5.379210,128.864914 4.871705,114.692627 
	C4.253646,97.433121 7.030447,80.913574 14.366623,65.412781 
	C21.195236,50.984425 31.141968,38.870102 43.611980,28.642879 
	C56.643696,17.954983 71.301689,11.240920 87.622826,7.762285 
	C99.989975,5.126388 112.391205,5.597991 124.884872,6.899103 
	C142.065689,8.688347 157.093307,15.627789 170.909561,25.470554 
	C191.677856,40.265999 204.800140,60.297081 211.031174,84.985764 
	C213.791489,95.922745 214.842758,107.052963 213.879852,118.177353 
	C212.092484,138.826706 205.098114,157.640533 192.374405,174.233688 
	C189.231110,178.332932 185.501434,181.790359 181.745468,185.751709 
z"/>
</svg>